<?xml version="1.0" encoding="utf-8"?>
<!-- Generator: Adobe Illustrator 24.0.1, SVG Export Plug-In . SVG Version: 6.00 Build 0)  -->
<svg version="1.1" id="Layer_1" xmlns="http://www.w3.org/2000/svg" xmlns:xlink="http://www.w3.org/1999/xlink" x="0px" y="0px"
	 viewBox="0 0 198.2 56.7" style="enable-background:new 0 0 198.2 56.7;" xml:space="preserve">
<style type="text/css">
	.st0{fill-rule:evenodd;clip-rule:evenodd;fill:#0095DA;}
	.st1{fill-rule:evenodd;clip-rule:evenodd;fill:#00A995;}
	.st2{fill:none;stroke:#00A995;stroke-width:0.216;stroke-miterlimit:2.6131;}
	.st3{fill:none;stroke:#0095DA;stroke-width:0.3983;stroke-miterlimit:2.6131;}
	.st4{fill-rule:evenodd;clip-rule:evenodd;fill:#FFFFFF;}
	.st5{fill-rule:evenodd;clip-rule:evenodd;fill:#E1F4FD;}
	.st6{fill:none;stroke:#0095DA;stroke-width:0.9998;stroke-miterlimit:2.6131;}
	.st7{clip-path:url(#SVGID_2_);fill:url(#SVGID_3_);}
	.st8{opacity:0.5;fill-rule:evenodd;clip-rule:evenodd;fill:#5F5F5F;}
	.st9{fill:#0095DA;}
	.st10{fill:#00A995;}
</style>
<path class="st0" d="M27.9,50.8c-2,0-4-0.2-5.9-0.7c-1.9-0.5-3.8-1.2-5.5-2.2C13,45.8,10,43,7.9,39.6c-1.1-1.7-1.9-3.5-2.5-5.4
	c-0.6-1.9-0.9-3.9-1-5.9c-0.1-2,0.1-4,0.5-5.9c0.4-2,1.1-3.9,2-5.6c1.8-3.6,4.5-6.7,7.8-8.9c1.6-1.1,3.4-2,5.3-2.7
	c1.9-0.7,3.8-1.1,5.8-1.3c2-0.2,4-0.1,5.9,0.2c2,0.3,3.9,0.9,5.7,1.7c3.7,1.6,6.9,4.2,9.3,7.3l0.7-0.5c-2.5-3.3-5.8-5.9-9.6-7.6
	c-1.9-0.8-3.9-1.4-5.9-1.8c-2-0.3-4.1-0.4-6.2-0.2c-2.1,0.2-4.1,0.6-6,1.4c-1.9,0.7-3.8,1.7-5.5,2.8c-3.4,2.3-6.2,5.6-8.1,9.3
	c-0.9,1.9-1.6,3.8-2,5.9c-0.4,2-0.6,4.1-0.5,6.2c0.1,2.1,0.5,4.1,1.1,6.1c0.6,2,1.5,3.9,2.6,5.6c2.2,3.5,5.3,6.5,8.9,8.5
	c1.8,1,3.7,1.8,5.8,2.3c2,0.5,4.1,0.8,6.1,0.8V50.8z"/>
<path class="st1" d="M48,32.1l0.7,0.2c0.9-3.5,0.8-7.3-0.2-10.8c-0.5-1.7-1.2-3.4-2.1-5c-0.9-1.6-2-3-3.3-4.3
	c-2.5-2.6-5.7-4.5-9.2-5.5c-3.5-1-7.2-1.1-10.8-0.3c-3.5,0.8-6.9,2.5-9.6,4.9c-2.7,2.4-4.8,5.5-6,9C6.5,23.7,6.2,27.4,6.8,31
	c0.6,3.6,2.2,7,4.5,9.8l0.6-0.5c-2.2-2.7-3.7-6-4.3-9.5c-0.6-3.4-0.3-7.1,0.8-10.4c1.1-3.3,3.1-6.3,5.8-8.7c2.6-2.3,5.8-4,9.2-4.8
	c3.4-0.8,7-0.7,10.4,0.3c3.4,1,6.5,2.8,8.9,5.4c2.5,2.5,4.3,5.6,5.2,9C48.8,25.1,48.8,28.7,48,32.1z"/>
<path class="st2" d="M48,32.1l0.7,0.2c0.9-3.5,0.8-7.3-0.2-10.8c-0.5-1.7-1.2-3.4-2.1-5c-0.9-1.6-2-3-3.3-4.3
	c-2.5-2.6-5.7-4.5-9.2-5.5c-3.5-1-7.2-1.1-10.8-0.3c-3.5,0.8-6.9,2.5-9.6,4.9c-2.7,2.4-4.8,5.5-6,9C6.5,23.7,6.2,27.4,6.8,31
	c0.6,3.6,2.2,7,4.5,9.8l0.6-0.5c-2.2-2.7-3.7-6-4.3-9.5c-0.6-3.4-0.3-7.1,0.8-10.4c1.1-3.3,3.1-6.3,5.8-8.7c2.6-2.3,5.8-4,9.2-4.8
	c3.4-0.8,7-0.7,10.4,0.3c3.4,1,6.5,2.8,8.9,5.4c2.5,2.5,4.3,5.6,5.2,9C48.8,25.1,48.8,28.7,48,32.1z"/>
<path class="st0" d="M35.6,43.3l0.2,0.5c2.8-1.3,5.3-3.4,7.1-5.9c0.9-1.3,1.6-2.6,2.2-4.1c0.6-1.5,0.9-3,1.1-4.5
	c0.2-1.5,0.1-3.1-0.1-4.7c-0.2-1.5-0.6-3.1-1.2-4.5c-1.2-2.9-3.2-5.4-5.6-7.4c-1.2-1-2.6-1.8-4-2.4c-1.4-0.6-2.9-1.1-4.5-1.3
	c-1.5-0.2-3.1-0.3-4.7-0.1c-1.6,0.1-3.1,0.5-4.5,1c-1.5,0.5-2.9,1.3-4.1,2.1C16.2,13,15,14,14,15.2c-1,1.2-1.9,2.5-2.6,3.9
	c-0.7,1.4-1.2,2.9-1.5,4.4l0.5,0.1c0.3-1.5,0.8-2.9,1.5-4.3c0.7-1.4,1.5-2.6,2.5-3.8c1-1.1,2.1-2.2,3.4-3c1.2-0.9,2.6-1.6,4-2.1
	c1.4-0.5,2.9-0.9,4.4-1c1.5-0.1,3-0.1,4.5,0.1c1.5,0.2,3,0.7,4.3,1.3c1.4,0.6,2.7,1.4,3.9,2.3c2.4,1.9,4.3,4.3,5.4,7.1
	c0.6,1.4,1,2.9,1.2,4.4c0.2,1.5,0.2,3,0.1,4.5c-0.3,3-1.4,5.9-3.2,8.4C40.7,40,38.3,42.1,35.6,43.3"/>
<path class="st3" d="M27.2,43.1L27.2,43.1c-0.7-0.4-1.1-0.8-1.9-1c-0.7-0.2-1.4,0.1-2,0.5c-0.4,0.3-0.7,1-0.7,1.5
	c0.1,0.1,0.2,0.3,0.3,0.4c-0.4,0-0.9,0.1-1.3,0.3c-1,0.5-1.3,1.7-1,2.7c0.9,0.4,1.9,0.5,2.8,0.5c0.8,0.2,1.6,0.1,2.4,0.2
	c1,0.2,1.9,0.3,2.9,0.3c0.3,0.2,0.7,0.4,1.1,0.6c0.6,0.3,1.1,0.5,1.7,0.8c0.6,0.3,1.2,0.7,1.9,1c0.5,0.2,0.9,0.2,1.4,0.3
	c0.9,0.1,1.8,0.1,2.7,0.3c0.3,0.1,0.6,0.1,0.9,0.2c0.1,0.1,0.2,0.1,0.3,0.2c0.5,0.3,0.9,0.4,1.5,0.5c0.8,0,1.6,0.1,2.4,0.1
	c1.8,0.1,3.6,0.1,5.3,0c1.1-0.1,2.7-0.5,3.8-0.7c1.9-0.3,2.7-0.1,4.6,0.4c5.7,1.4,11.5,2.3,16.4,3.4V40.9c-4.6,0.4-9.4,0.1-14.1,0.2
	c-2.4,0-5.4-0.2-7.1-2.1c-1.1-1.2-2.6-2.1-4.2-2.7c-1-0.4-2-0.5-3.1-0.6c-0.9-0.1-1.7-0.1-2.6-0.3c-1.2-0.2-2.3-0.6-3.5-0.9
	c-0.7-0.2-1.5,0.1-1.8,0.8c-0.5,0.9,0,2.4,0.7,3.1c0.5,0.5,1.1,0.9,1.8,1.2c0.7,0.3,0.9,0.4,1.5,0.5c-0.3,0.4-0.5,0.8-0.7,1.3
	c-1.2,0.1-1.9,0.3-2.9,0.8c-1.2-0.2-3-0.1-4.3,1C32.3,43,32.2,43,32,42.9c-0.4-0.3-1.1-0.6-1.8-0.6c-0.7,0-1.3,0.3-1.6,0.8
	c0,0,0,0.1,0,0.1C28.2,43.1,27.7,43.1,27.2,43.1z"/>
<path class="st0" d="M27.2,43.1L27.2,43.1c-0.7-0.4-1.1-0.8-1.9-1c-0.7-0.2-1.4,0.1-2,0.5c-0.4,0.3-0.7,1-0.7,1.5
	c0.1,0.1,0.2,0.3,0.3,0.4c-0.4,0-0.9,0.1-1.3,0.3c-1,0.5-1.3,1.7-1,2.7c0.9,0.4,1.9,0.5,2.8,0.5c0.8,0.2,1.6,0.1,2.4,0.2
	c1,0.2,1.9,0.3,2.9,0.3c0.3,0.2,0.7,0.4,1.1,0.6c0.6,0.3,1.1,0.5,1.7,0.8c0.6,0.3,1.2,0.7,1.9,1c0.5,0.2,0.9,0.2,1.4,0.3
	c0.9,0.1,1.8,0.1,2.7,0.3c0.3,0.1,0.6,0.1,0.9,0.2c0.1,0.1,0.2,0.1,0.3,0.2c0.5,0.3,0.9,0.4,1.5,0.5c0.8,0,1.6,0.1,2.4,0.1
	c1.8,0.1,3.6,0.1,5.3,0c1.1-0.1,2.7-0.5,3.8-0.7c1.9-0.3,2.7-0.1,4.6,0.4c5.7,1.4,11.5,2.3,16.4,3.4V40.9c-4.6,0.4-9.4,0.1-14.1,0.2
	c-2.4,0-5.4-0.2-7.1-2.1c-1.1-1.2-2.6-2.1-4.2-2.7c-1-0.4-2-0.5-3.1-0.6c-0.9-0.1-1.7-0.1-2.6-0.3c-1.2-0.2-2.3-0.6-3.5-0.9
	c-0.7-0.2-1.5,0.1-1.8,0.8c-0.5,0.9,0,2.4,0.7,3.1c0.5,0.5,1.1,0.9,1.8,1.2c0.7,0.3,0.9,0.4,1.5,0.5c-0.3,0.4-0.5,0.8-0.7,1.3
	c-1.2,0.1-1.9,0.3-2.9,0.8c-1.2-0.2-3-0.1-4.3,1c-0.1-0.1-0.3-0.2-0.4-0.3c-0.4-0.3-1.1-0.6-1.8-0.6c-0.7,0-1.3,0.3-1.6,0.8
	c0,0,0,0.1,0,0.1C28.2,43.1,27.7,43.1,27.2,43.1"/>
<path class="st4" d="M28.5,43.9l-0.9-0.6c0.3,0,0.6,0,0.9,0C28.5,43.5,28.5,43.7,28.5,43.9"/>
<path class="st5" d="M25.1,45.6c0-0.6-0.5-1-0.9-1.4c0.3,0.4,0.6,0.7,0.6,1.3c-0.7-0.4-1.2-0.9-1.7-1.5c0.1-0.6,0.5-1.1,0.9-1.3
	c0.4-0.2,0.9-0.2,1.3-0.1c0.7,0.2,1.2,0.6,1.8,1l1.4,0.9c0.1,0.1,0.2,0.2,0.2,0.2c-0.2,0.2-0.4,0.5-0.4,0.8c0.1-0.3,0.3-0.5,0.5-0.7
	c0.4,0.4,0.8,0.6,1.4,0.9c0.7,0.5,1.3,1,2.1,1.3c0.6,0.5,1.2,0.9,1.9,1.2c0.8,0.9,1.3,1.6,2.3,2.3c0.2,0.1,0.4,0.3,0.7,0.4
	c-0.8-0.2-1.7-0.1-2.6-0.2c-0.5-0.1-0.9-0.1-1.3-0.3c-0.6-0.2-1.2-0.6-1.8-0.9c-0.5-0.3-1.1-0.5-1.6-0.7c-1.1-0.5-1.8-1-2.8-1.8
	C26.5,46.4,25.8,46.1,25.1,45.6L25.1,45.6z"/>
<path class="st5" d="M28.1,48.1c-0.8-0.1-1.5-0.1-2.2-0.3c-0.8,0-1.5,0-2.3-0.2c-0.1,0-0.2,0-0.2,0c-0.3-0.3-1-0.4-1.6-0.4
	c0.4,0.1,0.9,0.2,1.2,0.4c-0.6,0-1.2-0.2-1.8-0.4c-0.2-0.6-0.1-1.2,0.3-1.6c0.5-0.6,1.3-0.7,2-0.7c0.4,0.3,0.8,0.6,1.3,0.9
	c0.4,0.3,0.8,0.6,1.2,0.8l0,0.3l0-0.2c0.3,0.2,0.6,0.3,0.9,0.5C27.3,47.5,27.7,47.8,28.1,48.1"/>
<path class="st5" d="M32.9,43.4c1-0.8,2.5-0.9,3.6-0.8c-0.4,0.4-0.7,1.1-0.7,1.9l-0.4,0.3c-0.5-0.3-1-0.6-1.5-0.8
	C33.5,43.8,33.2,43.6,32.9,43.4"/>
<path class="st5" d="M41.1,45.6c0.8,0.4,1,1.1,1.1,1.9c0.1-0.8-0.2-1.5-0.8-1.9c0.2-0.1,0.3-0.1,0.5-0.2c1.8-0.8,4-1.3,5.9-0.8
	c-1.4-0.5-2.9-0.4-4.3,0c1.8-0.9,3.3-1.3,5.2-1.8c-2.2,0.4-4,0.8-6.1,2.1c-0.3,0.1-0.5,0.2-0.7,0.3c-0.2,0.1-0.3,0.1-0.5,0.2
	c-0.4-0.8-1-1.6-1.4-2.4c-0.2-0.4-0.1-0.7,0-1.1c0.7-1.9,2-3.3,3.4-4.4c-1,0.6-1.9,1.3-2.7,2.3c-0.6-0.1-1.1-0.2-1.7-0.4
	c-0.4-0.8-0.3-1.9,0.2-2.6c-0.6,0.7-0.7,1.7-0.4,2.5c-1.2-0.5-2.1-1.5-2.1-2.9c0-0.6,0.2-1.1,0.8-1.3c0.3-0.1,0.5,0,0.8,0
	c1,0.3,1.9,0.6,2.9,0.8c1,0.2,2,0.3,3,0.4c1.4,0.1,2.5,0.3,3.8,0.9c0.6,0.3,1.1,0.5,1.7,0.9c0.7,0.4,1.2,0.9,1.8,1.5
	c1.8,1.8,4.8,2.1,7.2,2.1c4.6,0,10.2-0.3,14.9-0.6l-0.3,14.9c-0.4-0.1-1.3-0.4-1.7-0.5c-5-1-9.9-2.3-15-3.4
	c-1.9-0.4-3.2-0.7-5.1-0.4c-1.1,0.2-2.2,0.4-3.3,0.5c-1.8,0.1-3.6,0.1-5.3,0c-0.9-0.1-1.7-0.1-2.5-0.1c-0.5,0-0.9-0.1-1.3-0.4
	c-0.2-0.1-0.4-0.3-0.6-0.4c-0.5-0.3-1-0.5-1.5-0.9c-1-0.7-1.6-1.2-2.3-2.1c-0.7-0.3-1.3-0.7-1.9-1.2c-0.7-0.3-1.3-0.8-1.9-1.2
	c-0.1-0.5-0.6-1-1.1-1.3c0.4,0.4,0.8,0.8,0.8,1.1c-0.6-0.3-1-0.6-1.5-1.1c0-0.8,0.4-1.5,1.4-1.6c0.6,0,1.3,0.2,1.7,0.5
	c0.6,0.4,1.2,0.8,1.8,1.2c0,0.2,0.1,0.3,0,0.6c0-0.2,0-0.3,0-0.5c0.7,0.3,1.4,0.8,2.2,1.1c0.2,0.4,0.2,0.7,0.1,1
	c0.1-0.3,0.1-0.6,0-1c1.7,0.5,2.3,1.6,3,3.2c-0.4-1.7-1.3-3-3.1-3.6c-0.2-0.1-0.4-0.2-0.5-0.3l0.4-0.3c0.1-0.9,0.5-1.6,0.9-2
	c0.9-0.5,1.8-0.7,2.8-0.8c-0.1,0.4-0.1,0.7,0.1,1c0.4,0.8,1.1,1.6,1.5,2.5c-0.3,0.1-0.5,0.1-0.8,0.1c-1.1,0-2.2-0.4-3.2-0.6
	c1,0.3,2.2,0.8,3.3,0.8C40.8,45.6,40.9,45.6,41.1,45.6"/>
<path class="st0" d="M40.4,47.7c0-0.6-0.1-1.2-0.3-1.8C40.5,46.6,40.6,47.1,40.4,47.7"/>
<path class="st0" d="M56.2,43l-1.6-0.1C55.1,43.2,55.7,43.2,56.2,43"/>
<path class="st0" d="M51.8,47.3c0.4-1.4,0.6-2.4,0.2-3.9C52.8,45,52.3,46.1,51.8,47.3z"/>
<path class="st6" d="M51.8,47.3c0.4-1.4,0.6-2.4,0.2-3.9C52.8,45,52.3,46.1,51.8,47.3z"/>
<path class="st0" d="M51.8,41.3c0.2-0.4,0-1.1-0.1-1.5C52,40,52,40.8,51.8,41.3z"/>
<path class="st6" d="M51.8,41.3c0.2-0.4,0-1.1-0.1-1.5C52,40,52,40.8,51.8,41.3z"/>
<g>
	<defs>
		<path id="SVGID_1_" d="M23,39.9h10.2c0.2,0,0.4-0.2,0.4-0.4v-6.8h6.8c0.2,0,0.4-0.2,0.4-0.4V22.1c0-0.2-0.2-0.4-0.4-0.4h-6.8V15
			c0-0.2-0.2-0.4-0.4-0.4H23c-0.2,0-0.4,0.2-0.4,0.4v6.8h-6.8c-0.2,0-0.4,0.2-0.4,0.4v10.2c0,0.2,0.2,0.4,0.4,0.4h6.8v6.8
			C22.6,39.7,22.8,39.9,23,39.9"/>
	</defs>
	<clipPath id="SVGID_2_">
		<use xlink:href="#SVGID_1_"  style="overflow:visible;"/>
	</clipPath>
	<linearGradient id="SVGID_3_" gradientUnits="userSpaceOnUse" x1="18.7951" y1="30.2434" x2="45.0262" y2="21.7201">
		<stop  offset="0" style="stop-color:#0095DA"/>
		<stop  offset="0.23" style="stop-color:#0095DA"/>
		<stop  offset="0.55" style="stop-color:#00A995"/>
		<stop  offset="1" style="stop-color:#00A995"/>
	</linearGradient>
	<rect x="15.4" y="14.6" class="st7" width="25.4" height="25.4"/>
</g>
<path class="st8" d="M21.8,25.3c0.7,0,1.3,0.6,1.3,1.3c0,0.7-0.6,1.3-1.3,1.3c-0.7,0-1.3-0.6-1.3-1.3C20.5,25.8,21,25.3,21.8,25.3
	 M26.5,32.7c0,0-7.5-3.8-7.3-4.1c0.3-0.4,1.1-0.2,1.4-0.1c0.3,0.1,1.7,0.9,2.6,0.2c1-0.7,0.7-1.4,0.8-1.7c0.1-0.3,0.5-0.3,0.6-0.1
	c0.1,0.1,2.2,5.5,2.2,5.5S27.1,32.7,26.5,32.7z"/>
<path class="st8" d="M34.4,24.6c-0.8,0-1.4,0.6-1.4,1.4c0,0.8,0.6,1.4,1.4,1.4c0.8,0,1.4-0.6,1.4-1.4C35.8,25.3,35.2,24.6,34.4,24.6
	 M29.2,32.7c0,0,8.2-4.1,7.8-4.5c-0.3-0.4-1.2-0.2-1.5-0.1c-0.3,0.1-1.8,1-2.9,0.2c-1-0.8-0.8-1.5-0.9-1.9c-0.2-0.3-0.5-0.3-0.6-0.2
	c-0.1,0.2-2.4,6-2.4,6S28.6,32.7,29.2,32.7z"/>
<path class="st8" d="M27.6,32.4L23,20.3c0,0,0.4-0.5,1,0.1c0.6,0.6,1.1,2.6,3.8,2.6c2.7,0.1,3.3-2.1,3.8-2.2
	c0.4-0.1,0.9,0.1,0.9,0.2c0,0.1,0,0.2-0.2,0.5c-0.1,0.3-4.2,11.1-4.2,11.1S27.7,32.8,27.6,32.4"/>
<path class="st8" d="M28.1,17.9c1.1,0,1.9,0.9,1.9,1.9c0,1.1-0.9,1.9-1.9,1.9c-1.1,0-1.9-0.9-1.9-1.9C26.1,18.7,27,17.9,28.1,17.9"
	/>
<path class="st4" d="M21.5,25.2c0.7,0,1.3,0.6,1.3,1.3c0,0.7-0.6,1.3-1.3,1.3c-0.7,0-1.3-0.6-1.3-1.3C20.2,25.7,20.8,25.2,21.5,25.2
	 M26.3,32.6c0,0-7.5-3.8-7.3-4.1c0.3-0.4,1.1-0.2,1.4-0.1c0.3,0.1,1.7,0.9,2.6,0.2c1-0.7,0.7-1.4,0.8-1.7c0.1-0.3,0.5-0.3,0.6-0.1
	c0.1,0.1,2.2,5.5,2.2,5.5S26.9,32.6,26.3,32.6z"/>
<path class="st4" d="M34.2,24.5c-0.8,0-1.4,0.6-1.4,1.4c0,0.8,0.6,1.4,1.4,1.4c0.8,0,1.4-0.6,1.4-1.4C35.6,25.2,35,24.5,34.2,24.5
	 M29,32.6c0,0,8.2-4.1,7.8-4.5c-0.3-0.4-1.2-0.2-1.5-0.1c-0.3,0.1-1.8,1-2.9,0.2c-1-0.8-0.8-1.5-0.9-1.9c-0.2-0.3-0.5-0.3-0.6-0.2
	c-0.1,0.2-2.4,6-2.4,6S28.4,32.6,29,32.6z"/>
<path class="st4" d="M27.4,32.3l-4.6-12.1c0,0,0.4-0.5,1,0.1c0.6,0.6,1.1,2.6,3.8,2.6c2.7,0.1,3.3-2.1,3.8-2.2
	c0.4-0.1,0.9,0.1,0.9,0.2c0,0.1,0,0.2-0.2,0.5c-0.1,0.3-4.2,11.1-4.2,11.1S27.4,32.7,27.4,32.3"/>
<path class="st4" d="M27.8,17.8c1.1,0,1.9,0.9,1.9,1.9s-0.9,1.9-1.9,1.9c-1.1,0-1.9-0.9-1.9-1.9S26.7,17.8,27.8,17.8"/>
<path class="st9" d="M77.8,23.6c0,1.3-0.4,2.4-1.3,3.1c-0.8,0.8-1.9,1.1-3.3,1.1H70c-1.6,0-2.9-0.2-3.7-0.7
	c-1.1-0.6-1.6-1.7-1.6-3.2v-1.2H69V23c0,0.5,0.2,0.9,0.5,1c0.2,0.1,0.7,0.2,1.3,0.2h1c0.5,0,0.8,0,1-0.1c0.3-0.1,0.5-0.4,0.5-0.8
	v-0.7c0-0.4-0.2-0.6-0.6-0.7c-0.2-0.1-0.5-0.1-0.9-0.1l-3.3-0.3c-2.5-0.3-3.8-1.6-3.8-4.1v-0.9c0-1.5,0.5-2.6,1.4-3.4
	c0.7-0.6,2-0.8,3.8-0.8h2.5c3.3,0,4.9,1.2,4.9,3.7v1.2H73v-0.4c0-0.4-0.1-0.7-0.4-0.8c-0.2-0.1-0.5-0.2-0.9-0.2h-0.9
	c-0.5,0-0.8,0-1,0.1c-0.3,0.1-0.5,0.3-0.5,0.7v0.6c0,0.3,0.1,0.5,0.4,0.6c0.1,0,0.5,0.1,1.1,0.2l3,0.3c2.7,0.3,4.1,1.6,4.1,3.8V23.6
	z"/>
<polygon class="st9" points="94.2,27.7 89.7,27.7 89.7,21.9 84.8,21.9 84.8,27.7 80.3,27.7 80.3,12.5 84.8,12.5 84.8,18 89.7,18 
	89.7,12.5 94.2,12.5 "/>
<path class="st9" d="M105.5,18.2v-0.6c0-0.6-0.1-1-0.3-1.2c-0.2-0.2-0.6-0.3-1.2-0.3h-2.1v3.4h2.1c0.6,0,1-0.1,1.2-0.3
	C105.4,19.1,105.5,18.7,105.5,18.2 M110.1,27.7h-4.6v-2.9c0-0.6-0.1-0.9-0.3-1.2c-0.2-0.2-0.6-0.3-1.2-0.3h-2.1v4.3h-4.5V12.5h6.4
	c2.1,0,3.5,0.2,4.4,0.6c1.3,0.6,1.9,1.8,1.9,3.6v1.2c0,1.8-0.7,2.9-2.2,3.4c1.5,0.4,2.2,1.5,2.2,3.1V27.7z"/>
<rect x="113" y="12.5" class="st9" width="4.5" height="15.2"/>
<polygon class="st9" points="136,27.7 129.6,27.7 125.2,17.4 125.2,27.7 120.9,27.7 120.9,12.5 127.3,12.5 131.7,22.7 131.7,12.5 
	136,12.5 "/>
<rect x="139.2" y="12.5" class="st9" width="4.5" height="15.2"/>
<polygon class="st9" points="161.2,12.5 156.7,27.7 150.2,27.7 145.9,12.5 150.7,12.5 153.5,23.4 156.4,12.5 "/>
<path class="st9" d="M171,21.7l-1.4-5.7l-1.4,5.7H171z M177.3,27.7h-4.8l-0.7-2.6h-4.5l-0.7,2.6h-4.8l4.5-15.2h6.6L177.3,27.7z"/>
<path class="st9" d="M191.7,23.6c0,1.3-0.4,2.4-1.3,3.1c-0.8,0.8-1.9,1.1-3.3,1.1h-3.3c-1.6,0-2.9-0.2-3.7-0.7
	c-1.1-0.6-1.6-1.7-1.6-3.2v-1.2h4.3V23c0,0.5,0.2,0.9,0.5,1c0.2,0.1,0.7,0.2,1.3,0.2h1c0.5,0,0.8,0,1-0.1c0.3-0.1,0.5-0.4,0.5-0.8
	v-0.7c0-0.4-0.2-0.6-0.6-0.7c-0.2-0.1-0.5-0.1-0.9-0.1l-3.3-0.3c-2.5-0.3-3.8-1.6-3.8-4.1v-0.9c0-1.5,0.5-2.6,1.4-3.4
	c0.7-0.6,2-0.8,3.8-0.8h2.5c3.3,0,4.9,1.2,4.9,3.7v1.2h-4.3v-0.4c0-0.4-0.1-0.7-0.4-0.8c-0.2-0.1-0.5-0.2-0.9-0.2h-0.9
	c-0.5,0-0.8,0-1,0.1c-0.3,0.1-0.5,0.3-0.5,0.7v0.6c0,0.3,0.1,0.5,0.4,0.6c0.1,0,0.5,0.1,1.1,0.2l3,0.3c2.7,0.3,4.1,1.6,4.1,3.8V23.6
	z"/>
<path class="st10" d="M72.7,39v-2c0-0.9-0.1-1.5-0.3-1.7c-0.2-0.3-0.7-0.5-1.4-0.5h-2.3v6.4H71c0.8,0,1.3-0.2,1.5-0.5
	C72.6,40.4,72.7,39.8,72.7,39 M76.4,39.2c0,1.8-0.4,3.1-1.1,3.9c-0.7,0.7-2,1.1-3.8,1.1H65V31.8h6.5c1.8,0,3.1,0.4,3.8,1.1
	c0.7,0.8,1.1,2,1.1,3.9V39.2z"/>
<rect x="78.7" y="31.8" class="st10" width="3.7" height="12.4"/>
<path class="st10" d="M91.6,39.3l-1.1-4.7l-1.1,4.7H91.6z M96.8,44.2h-3.9l-0.6-2.1h-3.6L88,44.2h-3.9l3.7-12.4h5.4L96.8,44.2z"/>
<path class="st10" d="M109.4,39.4c0,1.7-0.4,2.9-1.1,3.7c-0.8,0.8-2,1.2-3.6,1.2h-2.3c-3,0-4.4-1.8-4.4-5.3v-1.8
	c0-1.9,0.4-3.2,1.1-4.1c0.8-1,2.1-1.5,3.9-1.5h1.8c1.2,0,2.3,0.3,3.2,0.8c1,0.7,1.6,1.6,1.6,2.7v0.7h-3.7c0-0.4-0.2-0.7-0.5-0.9
	c-0.2-0.1-0.6-0.2-1.1-0.2h-0.8c-0.8,0-1.3,0.2-1.5,0.5c-0.2,0.3-0.2,0.8-0.2,1.7v2c0,0.9,0.1,1.5,0.3,1.7c0.2,0.3,0.7,0.5,1.5,0.5
	h0.9c0.5,0,0.9,0,1.1-0.1c0.3-0.1,0.5-0.4,0.5-0.9v-0.3h-1.9v-2.6h5.5V39.4z"/>
<polygon class="st10" points="123.8,44.2 118.6,44.2 115,35.8 115,44.2 111.5,44.2 111.5,31.8 116.7,31.8 120.3,40.1 120.3,31.8 
	123.8,31.8 "/>
<path class="st10" d="M133.8,39v-2c0-0.9-0.1-1.5-0.3-1.7c-0.2-0.3-0.7-0.5-1.5-0.5h-0.6c-0.8,0-1.3,0.2-1.5,0.5
	c-0.1,0.3-0.2,0.8-0.2,1.7v2c0,0.9,0.1,1.5,0.3,1.7c0.2,0.3,0.7,0.5,1.4,0.5h0.6c0.8,0,1.3-0.2,1.5-0.5
	C133.7,40.4,133.8,39.8,133.8,39 M137.5,39.2c0,1.9-0.4,3.2-1.1,3.9c-0.7,0.8-2,1.2-3.8,1.2h-1.6c-1.8,0-3.1-0.4-3.9-1.2
	c-0.7-0.8-1.1-2.1-1.1-3.9v-2.5c0-1.9,0.4-3.2,1.1-3.9c0.7-0.8,2-1.2,3.8-1.2h1.6c1.8,0,3.1,0.4,3.9,1.2c0.7,0.8,1.1,2.1,1.1,3.9
	V39.2z"/>
<path class="st10" d="M149.9,40.9c0,1.1-0.3,1.9-1,2.6c-0.7,0.6-1.6,0.9-2.7,0.9h-2.7c-1.3,0-2.4-0.2-3-0.6
	c-0.9-0.5-1.3-1.4-1.3-2.6v-1h3.5v0.3c0,0.4,0.1,0.7,0.4,0.9c0.2,0.1,0.5,0.2,1,0.2h0.8c0.4,0,0.7,0,0.8-0.1
	c0.3-0.1,0.4-0.3,0.4-0.7v-0.5c0-0.3-0.2-0.5-0.4-0.6c-0.2,0-0.4-0.1-0.7-0.1l-2.7-0.3c-2-0.2-3.1-1.3-3.1-3.3V35
	c0-1.2,0.4-2.1,1.1-2.7c0.6-0.5,1.6-0.7,3.1-0.7h2c2.7,0,4,1,4,3v1h-3.5v-0.3c0-0.3-0.1-0.6-0.3-0.7c-0.1-0.1-0.4-0.1-0.7-0.1h-0.8
	c-0.4,0-0.7,0-0.8,0.1c-0.3,0.1-0.4,0.3-0.4,0.6v0.5c0,0.3,0.1,0.4,0.3,0.5c0.1,0,0.4,0.1,0.9,0.1l2.5,0.3c2.2,0.3,3.3,1.3,3.3,3.1
	V40.9z"/>
<polygon class="st10" points="161.2,34.8 158,34.8 158,44.2 154.3,44.2 154.3,34.8 151.1,34.8 151.1,31.8 161.2,31.8 "/>
<rect x="163.1" y="31.8" class="st10" width="3.7" height="12.4"/>
<path class="st10" d="M179.9,39.7c0,1.7-0.4,2.8-1.1,3.6c-0.7,0.7-2,1.1-3.6,1.1h-1.1c-1.8,0-3.1-0.4-3.9-1.2
	c-0.7-0.8-1.1-2.1-1.1-3.9v-2.5c0-1.9,0.4-3.2,1.1-3.9c0.7-0.8,2-1.2,3.9-1.2h0.9c1.7,0,3,0.3,3.7,0.9c0.8,0.7,1.2,1.9,1.2,3.6v0.4
	h-3.7v-0.4c0-0.5-0.1-0.9-0.4-1.1c-0.3-0.2-0.7-0.3-1.2-0.3c-0.7,0-1.2,0.2-1.4,0.6c-0.1,0.3-0.2,0.8-0.2,1.6v2
	c0,0.9,0.1,1.4,0.2,1.7c0.2,0.3,0.7,0.5,1.4,0.5c0.6,0,1-0.1,1.3-0.3c0.2-0.2,0.4-0.6,0.4-1.2v-0.4h3.7V39.7z"/>
<path class="st10" d="M192.2,40.9c0,1.1-0.3,1.9-1,2.6c-0.7,0.6-1.6,0.9-2.7,0.9h-2.7c-1.3,0-2.4-0.2-3-0.6
	c-0.9-0.5-1.3-1.4-1.3-2.6v-1h3.5v0.3c0,0.4,0.1,0.7,0.4,0.9c0.2,0.1,0.5,0.2,1,0.2h0.8c0.4,0,0.7,0,0.8-0.1
	c0.3-0.1,0.4-0.3,0.4-0.7v-0.5c0-0.3-0.2-0.5-0.4-0.6c-0.2,0-0.4-0.1-0.7-0.1l-2.7-0.3c-2-0.2-3.1-1.3-3.1-3.3V35
	c0-1.2,0.4-2.1,1.1-2.7c0.6-0.5,1.6-0.7,3.1-0.7h2c2.7,0,4,1,4,3v1h-3.5v-0.3c0-0.3-0.1-0.6-0.3-0.7c-0.1-0.1-0.4-0.1-0.7-0.1h-0.8
	c-0.4,0-0.7,0-0.8,0.1c-0.3,0.1-0.4,0.3-0.4,0.6v0.5c0,0.3,0.1,0.4,0.3,0.5c0.1,0,0.4,0.1,0.9,0.1l2.5,0.3c2.2,0.3,3.3,1.3,3.3,3.1
	V40.9z"/>
</svg>
