<?xml version="1.0" encoding="utf-8"?>
<!-- Generator: Adobe Illustrator 24.0.1, SVG Export Plug-In . SVG Version: 6.00 Build 0)  -->
<svg version="1.1" id="Layer_1" xmlns="http://www.w3.org/2000/svg" xmlns:xlink="http://www.w3.org/1999/xlink" x="0px" y="0px"
	 viewBox="0 0 103.2 87.1" style="enable-background:new 0 0 103.2 87.1;" xml:space="preserve">
<style type="text/css">
	.st0{fill:#0095DA;}
</style>
<g>
	<path class="st0" d="M51.5,80.2c-11.8,0-23.7,0-35.5,0c-4.8,0-7.8-3.6-6.6-7.8c0.8-2.7,3.1-4.4,6.3-4.4c5.8,0,11.5,0,17.3,0
		c18,0,36,0,54,0c5,0,8,3.5,6.8,7.8c-0.8,2.8-3.2,4.4-6.8,4.4C75.2,80.2,63.4,80.2,51.5,80.2z"/>
	<path class="st0" d="M51.6,7.2c11.9,0,23.8,0,35.8,0c4.7,0,7.6,3.6,6.5,7.7c-0.7,2.5-2.9,4.3-5.7,4.5c-0.9,0.1-1.9,0-2.8,0
		c-23.1,0-46.1,0-69.2,0c-4.9,0-8-3.7-6.7-8c0.8-2.7,3.2-4.3,6.6-4.3C27.9,7.2,39.8,7.2,51.6,7.2z"/>
	<path class="st0" d="M69.9,37.6c5.9,0,11.9,0,17.8,0c3,0,5.4,1.8,6.1,4.3c0.8,2.5,0,5.3-2.3,6.7c-1.1,0.7-2.6,1.2-4,1.2
		c-11.9,0.1-23.7,0.1-35.6,0c-3.8,0-6.5-2.7-6.5-6.2c0-3.4,2.8-6,6.6-6.1C58,37.6,63.9,37.6,69.9,37.6z"/>
</g>
</svg>
